REM MD5 a72a643e6c31e32fe6717653f20d60e3
FILE "SuperLite 1500 Series - KeePer (Japan).bin" BINARY
  TRACK 01 MODE2/2352
    INDEX 01 00:00:00
  TRACK 02 AUDIO
    INDEX 00 00:50:22
    INDEX 01 00:52:22
  TRACK 03 AUDIO
    INDEX 00 05:00:64
    INDEX 01 05:02:64
REM LEADOUT 08:53:66
